<svg width="16" height="13" viewBox="0 0 16 13" fill="none" xmlns="http://www.w3.org/2000/svg">
<path d="M4.86899 2.70499H9.73797V4.32799L13.525 2.16399L9.73797 0V1.623H4.86899C2.16399 1.623 0 3.78699 0 6.49198C0 7.14118 0.1082 7.79038 0.432799 8.43958L1.4066 7.89858C1.1902 7.46578 1.082 7.03298 1.082 6.49198C1.082 4.43619 2.81319 2.70499 4.86899 2.70499ZM14.7152 4.54439L13.7414 5.08539C13.9578 5.51818 14.066 5.95098 14.066 6.49198C14.066 8.54778 12.3348 10.279 10.279 10.279H5.40998V8.65598L1.623 10.82L5.40998 12.984V11.361H10.279C12.984 11.361 15.148 9.19697 15.148 6.49198C15.148 5.84278 15.0398 5.19358 14.7152 4.54439Z" fill="white"/>
</svg>
